<svg xmlns="http://www.w3.org/2000/svg" viewBox="0 0 186.04 186.35"><defs><style>.cls-1{fill:#fff;}</style></defs><g id="Layer_2" data-name="Layer 2"><g id="Layer_1-2" data-name="Layer 1"><path class="cls-1" d="M97.18,50.17s0,.08,0,.11c0,.23,0,.34,0,.44h0c0,.1,0,.22,0,.43l13.13,1.18,3.92,1.19v2.36l-3.92,1.19L97.15,58.26s0,3.37,0,5.34c0,14,1.51,29.06,12.2,29.06,5.81,0,10.33-3.44,13.43-6.92h-1.57a2.51,2.51,0,0,1-1.13-.27,1.5,1.5,0,0,1,.28-2.72l0,0A9.67,9.67,0,0,0,123.51,81c1.55-1.31,2.63-2.68,3.58-3.12a1.26,1.26,0,0,1,.6-.16c3,0-2.87,28.13-34.67,28.13S55.35,77.76,58.34,77.76a1.32,1.32,0,0,1,.61.16c.94.44,2,1.81,3.57,3.12a9.71,9.71,0,0,0,3.13,1.69h0A1.51,1.51,0,0,1,66,85.46a2.52,2.52,0,0,1-1.16.28H63.26c3.1,3.48,7.62,6.92,13.43,6.92,10.68,0,12.2-15,12.2-29.06,0-2,0-5.34,0-5.34L75.75,57.08l-3.91-1.19V53.53l3.91-1.19,13.14-1.18c0-.21,0-.33,0-.43h0c0-.1,0-.21,0-.44v-.11C88.15,11.89,42.72,0,15.23,0c-3,0-5.73.11-8.07.25C5.8.33,4.58.41,3.56.51,1.34.7,0,.86,0,.86L93,186.35,186,.86S184.7.7,182.47.51c-1-.1-2.23-.18-3.59-.26C176.53.11,173.76,0,170.8,0,143.31,0,97.89,11.89,97.18,50.17Z"/></g></g></svg>