<svg width="49" height="48" viewBox="0 0 49 48" fill="none" xmlns="http://www.w3.org/2000/svg">
<path d="M0.0269775 16.1C0.0269775 10.4051 0.0269769 7.55764 1.15298 5.39026C2.10198 3.56382 3.59098 2.07462 5.41798 1.12587C7.58498 0 10.432 0 16.127 0H31.927C37.622 0 40.47 0 42.637 1.12587C44.464 2.07462 45.953 3.56382 46.902 5.39026C48.027 7.55764 48.027 10.4051 48.027 16.1V31.9C48.027 37.5949 48.027 40.4424 46.902 42.6097C45.953 44.4362 44.464 45.9254 42.637 46.8741C40.47 48 37.622 48 31.927 48H16.127C10.432 48 7.58498 48 5.41798 46.8741C3.59098 45.9254 2.10198 44.4362 1.15298 42.6097C0.0269769 40.4424 0.0269775 37.5949 0.0269775 31.9V16.1Z" fill="url(#paint0_radial)"/>
<path d="M0.0269775 16.1C0.0269775 10.4051 0.0269769 7.55764 1.15298 5.39026C2.10198 3.56382 3.59098 2.07462 5.41798 1.12587C7.58498 0 10.432 0 16.127 0H31.927C37.622 0 40.47 0 42.637 1.12587C44.464 2.07462 45.953 3.56382 46.902 5.39026C48.027 7.55764 48.027 10.4051 48.027 16.1V31.9C48.027 37.5949 48.027 40.4424 46.902 42.6097C45.953 44.4362 44.464 45.9254 42.637 46.8741C40.47 48 37.622 48 31.927 48H16.127C10.432 48 7.58498 48 5.41798 46.8741C3.59098 45.9254 2.10198 44.4362 1.15298 42.6097C0.0269769 40.4424 0.0269775 37.5949 0.0269775 31.9V16.1Z" fill="url(#paint1_radial)"/>
<path d="M24.001 6.54544C19.261 6.54544 18.666 6.56617 16.804 6.6509C14.946 6.73599 13.677 7.03017 12.568 7.4618C11.42 7.90762 10.446 8.50399 9.47598 9.47453C8.50498 10.4447 7.90798 11.4185 7.46098 12.5662C7.02898 13.6763 6.73398 14.9451 6.64998 16.8025C6.56698 18.6643 6.54498 19.2596 6.54498 24C6.54498 28.7403 6.56599 29.3334 6.65099 31.1953C6.73599 33.0534 7.02999 34.3218 7.46199 35.4316C7.90799 36.5796 8.50399 37.5534 9.47499 38.5236C10.444 39.4945 11.418 40.0923 12.565 40.5382C13.676 40.9698 14.945 41.264 16.802 41.3491C18.664 41.4338 19.259 41.4545 23.999 41.4545C28.739 41.4545 29.332 41.4338 31.194 41.3491C33.052 41.264 34.322 40.9698 35.432 40.5382C36.58 40.0923 37.552 39.4945 38.522 38.5236C39.493 37.5534 40.089 36.5796 40.537 35.432C40.966 34.3218 41.26 33.0531 41.347 31.1956C41.431 29.3338 41.453 28.7403 41.453 24C41.453 19.2596 41.431 18.6647 41.347 16.8029C41.26 14.9447 40.966 13.6763 40.537 12.5665C40.089 11.4185 39.493 10.4447 38.522 9.47453C37.551 8.50362 36.58 7.90726 35.431 7.4618C34.319 7.03017 33.05 6.73599 31.191 6.6509C29.33 6.56617 28.737 6.54544 23.995 6.54544H24.001ZM22.435 9.69089C22.9 9.69017 23.418 9.69089 24.001 9.69089C28.661 9.69089 29.213 9.70762 31.054 9.79126C32.755 9.86908 33.679 10.1534 34.294 10.3923C35.109 10.7087 35.689 11.0869 36.3 11.6978C36.911 12.3087 37.289 12.8905 37.606 13.7051C37.845 14.3196 38.13 15.2433 38.207 16.9451C38.291 18.7851 38.309 19.3378 38.309 23.996C38.309 28.6542 38.291 29.2069 38.207 31.0469C38.129 32.7487 37.845 33.6723 37.606 34.2869C37.29 35.1014 36.911 35.6814 36.3 36.292C35.689 36.9029 35.109 37.2811 34.294 37.5974C33.68 37.8374 32.755 38.1211 31.054 38.1989C29.214 38.2825 28.661 38.3007 24.001 38.3007C19.34 38.3007 18.788 38.2825 16.948 38.1989C15.246 38.1203 14.322 37.836 13.707 37.5971C12.892 37.2807 12.311 36.9025 11.7 36.2916C11.089 35.6807 10.711 35.1003 10.394 34.2854C10.155 33.6709 9.86999 32.7473 9.79199 31.0454C9.70899 29.2054 9.69199 28.6527 9.69199 23.9916C9.69199 19.3305 9.70899 18.7807 9.79199 16.9407C9.86999 15.2389 10.155 14.3153 10.394 13.7C10.71 12.8854 11.089 12.3036 11.7 11.6927C12.311 11.0818 12.892 10.7036 13.707 10.3865C14.322 10.1465 15.246 9.8629 16.948 9.78471C18.558 9.71199 19.182 9.69017 22.435 9.68653V9.69089ZM33.318 12.5891C32.161 12.5891 31.223 13.5262 31.223 14.6829C31.223 15.8393 32.161 16.7774 33.318 16.7774C34.474 16.7774 35.412 15.8393 35.412 14.6829C35.412 13.5265 34.474 12.5883 33.318 12.5883V12.5891ZM24.001 15.0363C19.051 15.0363 15.037 19.0498 15.037 24C15.037 28.9502 19.051 32.9618 24.001 32.9618C28.951 32.9618 32.963 28.9502 32.963 24C32.963 19.0498 28.95 15.0363 24 15.0363H24.001ZM24.001 18.1818C27.214 18.1818 29.819 20.7865 29.819 24C29.819 27.2131 27.214 29.8182 24.001 29.8182C20.787 29.8182 18.183 27.2131 18.183 24C18.183 20.7865 20.787 18.1818 24.001 18.1818Z" fill="white"/>
<defs>
<radialGradient id="paint0_radial" cx="0" cy="0" r="1" gradientUnits="userSpaceOnUse" gradientTransform="translate(12.777 51.697) rotate(-90) scale(47.5715 44.2453)">
<stop stop-color="#FFDD55"/>
<stop offset="0.1" stop-color="#FFDD55"/>
<stop offset="0.5" stop-color="#FF543E"/>
<stop offset="1" stop-color="#C837AB"/>
</radialGradient>
<radialGradient id="paint1_radial" cx="0" cy="0" r="1" gradientUnits="userSpaceOnUse" gradientTransform="translate(-8.01302 3.45784) rotate(78.6806) scale(21.2647 87.6539)">
<stop stop-color="#3771C8"/>
<stop offset="0.128" stop-color="#3771C8"/>
<stop offset="1" stop-color="#6600FF" stop-opacity="0"/>
</radialGradient>
</defs>
</svg>
