<svg width="48" height="48" viewBox="0 0 48 48" fill="none" xmlns="http://www.w3.org/2000/svg">
<path d="M0 16.1C0 10.4051 7.03335e-06 7.55764 1.12601 5.39026C2.07501 3.56382 3.564 2.07462 5.39 1.12587C7.558 0 10.405 0 16.1 0H31.9C37.595 0 40.442 0 42.61 1.12587C44.436 2.07462 45.925 3.56382 46.874 5.39026C48 7.55764 48 10.4051 48 16.1V31.9C48 37.5949 48 40.4424 46.874 42.6097C45.925 44.4362 44.436 45.9254 42.61 46.8741C40.442 48 37.595 48 31.9 48H16.1C10.405 48 7.558 48 5.39 46.8741C3.564 45.9254 2.07501 44.4362 1.12601 42.6097C7.03335e-06 40.4424 0 37.5949 0 31.9V16.1Z" fill="#1265BF"/>
<path d="M10.774 14.9066C13.074 14.9066 14.938 13.0423 14.938 10.7426C14.938 8.44289 13.074 6.57861 10.774 6.57861C8.47399 6.57861 6.60999 8.44289 6.60999 10.7426C6.60999 13.0423 8.47399 14.9066 10.774 14.9066Z" fill="white"/>
<path d="M18.751 17.9839H25.652V21.1453C25.652 21.1453 27.525 17.3999 32.62 17.3999C37.166 17.3999 40.931 19.639 40.931 26.464V40.856H33.779V28.2079C33.779 24.1818 31.63 23.739 29.992 23.739C26.593 23.739 26.011 26.671 26.011 28.7331V40.856H18.751V17.9839Z" fill="white"/>
<path d="M7.14398 17.9839H14.404V40.856H7.14398V17.9839Z" fill="white"/>
</svg>
