<svg width="48" height="48" viewBox="0 0 48 48" fill="none" xmlns="http://www.w3.org/2000/svg">
<path d="M0 16.1C0 10.4051 7.03335e-06 7.55764 1.12601 5.39026C2.07501 3.56382 3.564 2.07462 5.39 1.12587C7.558 0 10.405 0 16.1 0H31.9C37.595 0 40.442 0 42.61 1.12587C44.436 2.07462 45.925 3.56382 46.874 5.39026C48 7.55764 48 10.4051 48 16.1V31.9C48 37.5949 48 40.4424 46.874 42.6097C45.925 44.4362 44.436 45.9254 42.61 46.8741C40.442 48 37.595 48 31.9 48H16.1C10.405 48 7.558 48 5.39 46.8741C3.564 45.9254 2.07501 44.4362 1.12601 42.6097C7.03335e-06 40.4424 0 37.5949 0 31.9V16.1Z" fill="#CB2027"/>
<path d="M12 19.1266C12 17.8249 12.273 16.5325 12.822 15.2524C13.371 13.9724 14.155 12.7823 15.178 11.6882C16.202 10.5941 17.544 9.70463 19.209 9.02278C20.874 8.34093 22.719 8 24.744 8C28.031 8 30.729 9.01348 32.837 11.0373C34.946 13.0612 36 15.4477 36 18.1968C36 21.73 35.107 24.6496 33.318 26.9524C31.529 29.2552 29.219 30.4082 26.388 30.4082C25.457 30.4082 24.583 30.1912 23.767 29.7573C22.952 29.3234 22.378 28.7965 22.047 28.1766L20.806 33.0736C20.704 33.4672 20.567 33.8639 20.403 34.2668C20.239 34.6697 20.056 35.0572 19.86 35.4291C19.665 35.801 19.467 36.1512 19.271 36.4828C19.076 36.8145 18.878 37.1244 18.682 37.4126C18.487 37.7009 18.316 37.9457 18.171 38.141C18.025 38.3362 17.891 38.5067 17.767 38.6524L17.581 38.9003C17.519 38.984 17.436 39.015 17.333 38.9933C17.231 38.9716 17.169 38.9096 17.147 38.8073C17.147 38.7856 17.132 38.6431 17.101 38.3734C17.07 38.1038 17.039 37.8218 17.008 37.5211C16.977 37.2205 16.946 36.8331 16.915 36.3589C16.884 35.8847 16.874 35.4229 16.884 34.9797C16.893 34.5365 16.924 34.0437 16.977 33.5075C17.029 32.9713 17.107 32.4754 17.209 32.0198C17.436 31.0497 18.202 27.814 19.504 22.3189C19.34 21.9873 19.203 21.5906 19.101 21.1257C18.998 20.6608 18.946 20.2826 18.946 19.9944L18.915 19.5295C18.915 18.2061 19.25 17.1058 19.922 16.2287C20.595 15.3516 21.405 14.9115 22.357 14.9115C23.122 14.9115 23.715 15.1657 24.14 15.6708C24.564 16.176 24.775 16.8114 24.775 17.5769C24.775 18.0511 24.688 18.6369 24.512 19.3281C24.335 20.0192 24.102 20.8157 23.814 21.7145C23.526 22.6133 23.318 23.3417 23.194 23.8996C22.986 24.8294 23.169 25.6352 23.736 26.317C24.304 26.9989 25.064 27.3398 26.016 27.3398C27.65 27.3398 28.998 26.4162 30.062 24.5659C31.126 22.7156 31.659 20.481 31.659 17.8559C31.659 15.8506 31.008 14.2142 29.705 12.9434C28.403 11.6727 26.583 11.0373 24.248 11.0373C21.643 11.0373 19.529 11.8742 17.907 13.5478C16.285 15.2214 15.473 17.2267 15.473 19.5605C15.473 20.9459 15.867 22.1112 16.651 23.0627C16.921 23.3727 17.002 23.7043 16.899 24.0545C16.859 24.1568 16.797 24.3955 16.713 24.7674C16.629 25.1393 16.567 25.3779 16.527 25.4802C16.487 25.7065 16.381 25.8583 16.217 25.9296C16.053 26.0009 15.867 25.9978 15.659 25.9141C14.44 25.4182 13.526 24.5659 12.915 23.3572C12.304 22.1484 12 20.7382 12 19.1266Z" fill="white"/>
</svg>
