<svg xmlns="http://www.w3.org/2000/svg" viewBox="0 0 389.87 389.87"><defs><style>.cls-1{fill:#36b0cc;}.cls-2{fill:#fff;}</style></defs><g id="Layer_2" data-name="Layer 2"><g id="Layer_1-2" data-name="Layer 1"><circle class="cls-1" cx="194.93" cy="194.93" r="194.93"/><path class="cls-2" d="M200,156.22v.14c0,.27,0,.4,0,.53h0c0,.11,0,.26,0,.51l15.85,1.43,4.72,1.43v2.86l-4.72,1.42L199.92,166s0,4.07,0,6.44c0,16.93,1.82,35.08,14.72,35.08,7,0,12.47-4.16,16.21-8.36H229a3,3,0,0,1-1.36-.32,1.81,1.81,0,0,1,.33-3.29l0,0a11.73,11.73,0,0,0,3.77-2c1.87-1.58,3.17-3.24,4.32-3.77a1.51,1.51,0,0,1,.72-.18c3.62,0-3.47,33.94-41.84,33.94s-45.45-33.94-41.84-33.94a1.54,1.54,0,0,1,.73.18c1.14.53,2.44,2.19,4.31,3.77a11.94,11.94,0,0,0,3.77,2l0,0a1.81,1.81,0,0,1,.37,3.27,3,3,0,0,1-1.39.34H159c3.74,4.2,9.2,8.36,16.21,8.36,12.89,0,14.72-18.15,14.72-35.08,0-2.37,0-6.44,0-6.44l-15.85-1.43-4.73-1.42v-2.86l4.73-1.43L190,157.41c0-.25,0-.4,0-.51h0c0-.13,0-.26,0-.53a.66.66,0,0,0,0-.14c-.85-46.19-55.67-60.54-88.84-60.54-3.57,0-6.91.13-9.74.3-1.64.1-3.11.2-4.34.32-2.68.22-4.3.42-4.3.42L194.93,320.54,307.18,96.72s-1.62-.2-4.3-.42c-1.23-.12-2.7-.22-4.34-.32-2.83-.17-6.17-.3-9.74-.3C255.62,95.68,200.81,110,200,156.22Z"/></g></g></svg>